<svg xmlns="http://www.w3.org/2000/svg" viewBox="0 33.3 1440 286.7"><path fill="#0C0C24" fill-opacity="1" d="M0,320L8,293.3C16,267,32,213,48,208C64,203,80,245,96,245.3C112,245,128,203,144,160C160,117,176,75,192,58.7C208,43,224,53,240,64C256,75,272,85,288,122.7C304,160,320,224,336,245.3C352,267,368,245,384,208C400,171,416,117,432,80C448,43,464,21,480,42.7C496,64,512,128,528,144C544,160,560,128,576,133.3C592,139,608,181,624,213.3C640,245,656,267,672,234.7C688,203,704,117,720,117.3C736,117,752,203,768,224C784,245,800,203,816,186.7C832,171,848,181,864,176C880,171,896,149,912,122.7C928,96,944,64,960,90.7C976,117,992,203,1008,197.3C1024,192,1040,96,1056,90.7C1072,85,1088,171,1104,208C1120,245,1136,235,1152,202.7C1168,171,1184,117,1200,85.3C1216,53,1232,43,1248,37.3C1264,32,1280,32,1296,37.3C1312,43,1328,53,1344,90.7C1360,128,1376,192,1392,218.7C1408,245,1424,235,1432,229.3L1440,224L1440,320L1432,320C1424,320,1408,320,1392,320C1376,320,1360,320,1344,320C1328,320,1312,320,1296,320C1280,320,1264,320,1248,320C1232,320,1216,320,1200,320C1184,320,1168,320,1152,320C1136,320,1120,320,1104,320C1088,320,1072,320,1056,320C1040,320,1024,320,1008,320C992,320,976,320,960,320C944,320,928,320,912,320C896,320,880,320,864,320C848,320,832,320,816,320C800,320,784,320,768,320C752,320,736,320,720,320C704,320,688,320,672,320C656,320,640,320,624,320C608,320,592,320,576,320C560,320,544,320,528,320C512,320,496,320,480,320C464,320,448,320,432,320C416,320,400,320,384,320C368,320,352,320,336,320C320,320,304,320,288,320C272,320,256,320,240,320C224,320,208,320,192,320C176,320,160,320,144,320C128,320,112,320,96,320C80,320,64,320,48,320C32,320,16,320,8,320L0,320Z"></path></svg>